<svg width="19" height="4" viewBox="0 0 19 4" fill="none" xmlns="http://www.w3.org/2000/svg">
<path d="M0 2C0 1.175 0.675 0.5 1.5 0.5C2.325 0.5 3 1.175 3 2C3 2.825 2.325 3.5 1.5 3.5C0.675 3.5 0 2.825 0 2Z" fill="#B3B3B3"/>
<path d="M8 2C8 1.175 8.675 0.5 9.5 0.5C10.325 0.5 11 1.175 11 2C11 2.825 10.325 3.5 9.5 3.5C8.675 3.5 8 2.825 8 2Z" fill="#B3B3B3"/>
<path d="M16 2C16 1.175 16.675 0.5 17.5 0.5C18.325 0.5 19 1.175 19 2C19 2.825 18.325 3.5 17.5 3.5C16.675 3.5 16 2.825 16 2Z" fill="#B3B3B3"/>
</svg>
